<svg xmlns="http://www.w3.org/2000/svg" width="32" height="32" viewBox="0 0 32 32">
  <defs>
    <style>
      .cls-1 {
        fill: #333;
        fill-rule: evenodd;
      }
    </style>
  </defs>
  <path id="Bag" class="cls-1" d="M25.6,25.6a3.2,3.2,0,1,0,3.2,3.2A3.209,3.209,0,0,0,25.6,25.6ZM0,0V3.2H3.2L8.959,15.36,6.719,19.2A5.7,5.7,0,0,0,6.4,20.8,3.209,3.209,0,0,0,9.6,24H28.8V20.8H10.24a0.344,0.344,0,0,1-.32-0.32V20.32L11.36,17.6H23.2A2.919,2.919,0,0,0,25.92,16l5.76-10.4A0.88,0.88,0,0,0,32,4.8a1.512,1.512,0,0,0-1.6-1.6H6.719L5.281,0H0ZM9.6,25.6a3.2,3.2,0,1,0,3.2,3.2A3.209,3.209,0,0,0,9.6,25.6Z"/>
</svg>
