<svg xmlns="http://www.w3.org/2000/svg" width="32" height="26" viewBox="0 0 32 26">
  <defs>
    <style>
      .cls-1 {
        fill: #333;
        fill-rule: evenodd;
      }
    </style>
  </defs>
  <path id="Favourites" class="cls-1" d="M27.17,0.767A8.244,8.244,0,0,0,16.7,3.9l0,0a0.1,0.1,0,0,1-.02.032,0.058,0.058,0,0,1-.005.011,0.829,0.829,0,0,1-1.387,0s0-.007-0.006-0.011a0.19,0.19,0,0,1-.02-0.032l0,0A8.244,8.244,0,0,0,4.782.767a7.893,7.893,0,0,0-3.9,10.6C2.4,14.512,10.916,22.279,14.443,25.419h0a2.308,2.308,0,0,0,3.056.005c3.522-3.134,12.049-10.909,13.564-14.053A7.891,7.891,0,0,0,27.17.767Z"/>
</svg>
