<svg xmlns="http://www.w3.org/2000/svg" width="20" height="20" viewBox="0 0 20 20">
  <defs>
    <style>
      .cls-1 {
        fill: #333;
        fill-rule: evenodd;
        opacity: 0.5;
      }
    </style>
  </defs>
  <path id="Icon" class="cls-1" d="M18.931,6.861H13.857a1.453,1.453,0,0,1-1.335-.976,1.166,1.166,0,0,1-.041-0.13l-1.557-5-0.04-.126A0.939,0.939,0,0,0,9.091.7L7.513,5.733C7.5,5.8,7.481,5.848,7.462,5.9a1.429,1.429,0,0,1-1.331.952l-5.046.01H0.816A0.981,0.981,0,0,0,0,7.846a1,1,0,0,0,.375.791c0.015,0.013,4.17,3.178,4.17,3.178a1.524,1.524,0,0,1,.59,1.574,1.252,1.252,0,0,1-.078.249L3.494,18.664a1.111,1.111,0,0,0-.059.342A0.974,0.974,0,0,0,4.386,20a0.917,0.917,0,0,0,.474-0.131l0.162-.124,4.1-3.112c0.028-.023.058-0.047,0.09-0.068a1.376,1.376,0,0,1,1.549-.015,1.128,1.128,0,0,1,.144.109l4.076,3.1L15.1,19.846a0.934,0.934,0,0,0,.5.147A0.972,0.972,0,0,0,16.546,19a1.015,1.015,0,0,0-.043-0.3c0-.015-1.587-5.094-1.587-5.094a1.409,1.409,0,0,1-.062-0.2,1.531,1.531,0,0,1,.5-1.525,1.2,1.2,0,0,1,.108-0.083L19.54,8.7l0.125-.1A1.012,1.012,0,0,0,20,7.848a0.977,0.977,0,0,0-.831-0.986H18.931Z"/>
</svg>
